<svg xmlns="http://www.w3.org/2000/svg" viewBox="0 0 64 64"><defs><linearGradient id="p" x1="0" y1="0" x2="0" y2="1"><stop offset="0" stop-color="#d9e6f5"/><stop offset="1" stop-color="#6d819c"/></linearGradient></defs><path d="M32 6c15 0 22 9 22 23 0 15-6 26-16 29-4 1-8 1-12 0C16 55 10 44 10 29 10 15 17 6 32 6z" fill="url(#p)"/><path d="M32 10c12 0 18 8 18 19 0 13-5 22-13 25-3 1-7 1-10 0-8-3-13-12-13-25 0-11 6-19 18-19z" fill="#0c1a33"/><ellipse cx="24" cy="30" rx="6" ry="5.5" fill="#6fe0ff"/><ellipse cx="40" cy="30" rx="6" ry="5.5" fill="#6fe0ff"/><circle cx="24" cy="30" r="2" fill="#04101f"/><circle cx="40" cy="30" r="2" fill="#04101f"/><path d="M24 43q8 5 16 0" fill="none" stroke="#f2a950" stroke-width="2.5" stroke-linecap="round"/></svg>
